<svg xmlns="http://www.w3.org/2000/svg" width="612" height="612" viewBox="0 0 612 612" fill="#382bc1">
  <g transform="translate(38 0)">
    <path d="m222.807 139.975 2.39.005q2.901.008 5.803.02a87651 87651 0 0 1 .167 113.087q.022 18.825.064 37.649.043 19.353.051 38.707.005 11.918.042 23.834c.018 6.12.02 12.238.015 18.357q.001 3.735.019 7.471c.09 20.289-1.345 39.888-6.983 59.457l-1.05 3.705C217.088 463.586 207.506 485.245 194 503q-1.305 1.81-2.605 3.625c-6.685 9.238-13.949 17.66-21.897 25.83a276 276 0 0 0-3.67 3.873C154.915 547.801 141.27 556.531 128 565l-3.309 2.148c-29.343 17.95-65.649 26.901-99.914 26.86l-3.277-.004L19 594a81228 81228 0 0 1-.165-106.348l-.002-2.264q-.021-18.076-.064-36.151-.043-18.59-.051-37.183-.005-11.442-.042-22.884c-.018-5.88-.02-11.761-.015-17.642q-.001-3.585-.019-7.168c-.224-48.436 10.93-97.508 40.969-136.552a291 291 0 0 0 3.94-5.273c7.5-10.13 15.853-19.861 25.558-27.95a91 91 0 0 0 3.782-3.358C123.266 162.822 164.29 146.543 205 141l2.05-.317c5.257-.724 10.461-.731 15.757-.708M143 220c-7.402 7.926-9.502 14.648-9.309 25.46.764 8.753 4.669 15.816 11.309 21.54 7.82 5.365 16.293 6.995 25.625 5.437 10.26-2.77 15.937-9.822 21.25-18.5 2.617-6.947 2.248-15.361.059-22.332-3.738-8.095-8.615-13.291-16.434-17.48-11.534-3.707-23.3-2.427-32.5 5.875m118-80c147.92 0 147.92 0 204.875 55.625 30.467 31.18 50.206 75.41 51.73 119.04l.122 3.033q.145 3.651.273 7.302a9547 9547 0 0 1-27.983.07c-19.54.028-39.076-.103-58.615-.321q-5.617-.063-11.236-.123c-11.307-.122-22.613-.249-33.92-.399a6328 6328 0 0 0-14.364-.165q-3.367-.038-6.733-.088c-14.862-.221-29.138-.237-43.336 4.776l-2.314.802c-21.291 7.608-39.193 23.193-49.478 43.368-1.86 3.955-3.472 7.995-5.021 12.08l-1.027 2.652A303 303 0 0 0 262 393h-1z"/>
    <path d="M361.667 346.886h2.575q4.187.002 8.375.016l5.826.005q7.65.006 15.299.024 7.813.014 15.625.02 15.317.016 30.633.049.014 2.113.023 4.227l.014 2.378c-.37 24.188-11.802 45.992-28.037 63.395-21.871 20.604-46.542 26.545-75.594 26.293q-2.89-.009-5.783-.013c-5.017-.011-10.034-.04-15.052-.074-5.142-.031-10.284-.044-15.426-.06A9606 9606 0 0 1 270 443q-.027-3.116-.044-6.23l-.024-3.505c.49-23.41 15.215-46.195 31.466-61.972 16.597-14.628 37.923-24.508 60.27-24.407" fill="#382cc1"/>
    <path d="M58 20q17.108-.176 34.22-.26a2695 2695 0 0 0 15.895-.117 1872 1872 0 0 1 15.386-.097q2.911-.014 5.822-.055C153.848 19.141 174.732 25.566 194 41l1.91 1.45c17.348 13.79 29.367 37.848 32.367 59.557.441 3.991.753 7.977.723 11.993-2.006 2.006-6.065 1.168-8.814 1.177l-2.484.02q-4.099.028-8.198.041l-2.838.013q-7.462.03-14.923.044c-5.096.011-10.19.045-15.286.085-3.95.027-7.899.035-11.848.038q-2.813.008-5.624.035c-15.653.147-31.008-1.336-45.36-8.14l-2.24-1.03C104.554 103.02 98.785 98.894 93 94l-2.191-1.738C71.517 76.443 60.942 52.337 58 28c-.055-2.668-.02-5.33 0-8"/>
  </g>
</svg>
